<?xml version="1.0" encoding="UTF-8" standalone="no"?>
<!-- Created with Inkscape (http://www.inkscape.org/) -->

<svg
   width="210mm"
   height="297mm"
   viewBox="0 0 210 297"
   version="1.1"
   id="svg1"
   sodipodi:docname="drawing.svg"
   inkscape:version="1.3.2 (091e20ef0f, 2023-11-25)"
   xmlns:inkscape="http://www.inkscape.org/namespaces/inkscape"
   xmlns:sodipodi="http://sodipodi.sourceforge.net/DTD/sodipodi-0.dtd"
   xmlns="http://www.w3.org/2000/svg"
   xmlns:svg="http://www.w3.org/2000/svg">
  <sodipodi:namedview
     id="namedview1"
     pagecolor="#505050"
     bordercolor="#eeeeee"
     borderopacity="1"
     inkscape:showpageshadow="0"
     inkscape:pageopacity="0"
     inkscape:pagecheckerboard="0"
     inkscape:deskcolor="#505050"
     inkscape:document-units="mm"
     inkscape:zoom="2.2726041"
     inkscape:cx="209.01132"
     inkscape:cy="130.46707"
     inkscape:window-width="1896"
     inkscape:window-height="996"
     inkscape:window-x="0"
     inkscape:window-y="0"
     inkscape:window-maximized="1"
     inkscape:current-layer="layer1" />
  <defs
     id="defs1" />
  <g
     inkscape:label="Layer 1"
     inkscape:groupmode="layer"
     id="layer1">
    <g
       id="path1"
       transform="translate(-2.5890468,-3.668688)">
      <path
         style="color:#000000;fill:#000000;fill-opacity:0.00467649;-inkscape-stroke:none"
         d="m 17.508293,13.444265 a 5.7410326,5.7410326 0 0 1 -5.741032,5.741033 5.7410326,5.7410326 0 0 1 -5.741033,-5.741033 5.7410326,5.7410326 0 0 1 5.741033,-5.7410322 5.7410326,5.7410326 0 0 1 5.741032,5.7410322 z"
         id="path11" />
      <path
         style="color:#000000;fill:#000000;-inkscape-stroke:none"
         d="m 11.767578,6.7714844 c -3.6746414,0 -6.673828,2.9972335 -6.673828,6.6718746 0,3.674642 2.9991866,6.673828 6.673828,6.673828 3.674642,0 6.673828,-2.999186 6.673828,-6.673828 0,-3.6746411 -2.999186,-6.6718746 -6.673828,-6.6718746 z m 0,1.8632812 c 2.666722,0 4.808594,2.1418724 4.808594,4.8085934 0,2.666722 -2.141872,4.808594 -4.808594,4.808594 -2.6667216,0 -4.8085936,-2.141872 -4.8085936,-4.808594 0,-2.666721 2.141872,-4.8085934 4.8085936,-4.8085934 z"
         id="path12" />
    </g>
    <g
       id="path1-5"
       transform="translate(-2.5890468,-3.668688)"
       inkscape:export-filename="path1-5.svg"
       inkscape:export-xdpi="96"
       inkscape:export-ydpi="96">
      <path
         style="color:#000000;fill:#000000;fill-opacity:0.00467649;-inkscape-stroke:none"
         d="m 39.087586,23.862051 a 5.7410326,5.7410326 0 0 1 -5.741032,5.741033 5.7410326,5.7410326 0 0 1 -5.741033,-5.741033 5.7410326,5.7410326 0 0 1 5.741033,-5.741033 5.7410326,5.7410326 0 0 1 5.741032,5.741033 z"
         id="path9" />
      <path
         style="color:#000000;fill:#000000;-inkscape-stroke:none"
         d="m 33.345703,17.189453 c -3.674641,0 -6.671875,2.997234 -6.671875,6.671875 0,3.674642 2.997234,6.673828 6.671875,6.673828 3.674642,0 6.673828,-2.999186 6.673828,-6.673828 0,-3.674641 -2.999186,-6.671875 -6.673828,-6.671875 z m 0,1.863281 c 2.666722,0 4.808594,2.141872 4.808594,4.808594 0,2.666722 -2.141872,4.808594 -4.808594,4.808594 -2.666722,0 -4.808594,-2.141872 -4.808594,-4.808594 0,-2.666722 2.141872,-4.808594 4.808594,-4.808594 z"
         id="path10" />
    </g>
    <g
       id="path5"
       transform="translate(-2.5890468,-3.668688)">
      <path
         style="color:#000000;fill:#ff0000;-inkscape-stroke:none"
         d="m 16.957092,15.898873 11.19963,5.50857"
         id="path6" />
      <path
         style="color:#000000;fill:#000000;-inkscape-stroke:none"
         d="m 17.369141,15.0625 -0.824219,1.673828 11.201172,5.507813 0.822265,-1.673829 z"
         id="path7" />
    </g>
  </g>
</svg>
