<?xml version="1.0" encoding="UTF-8" standalone="no"?>
<!-- Created with Inkscape (http://www.inkscape.org/) -->

<svg
   width="34.925777mm"
   height="23.763672mm"
   viewBox="0 0 34.925777 23.763672"
   version="1.1"
   id="svg1"
   xmlns="http://www.w3.org/2000/svg"
   xmlns:svg="http://www.w3.org/2000/svg">
  <defs
     id="defs1" />
  <g
     id="layer1"
     transform="translate(-2.5047031,-3.1027962)">
    <g
       id="path1"
       transform="translate(-2.5890468,-3.668688)">
      <path
         style="color:#000000;fill:#000000;fill-opacity:0.00467649;-inkscape-stroke:none"
         d="m 17.508293,13.444265 a 5.7410326,5.7410326 0 0 1 -5.741032,5.741033 5.7410326,5.7410326 0 0 1 -5.741033,-5.741033 5.7410326,5.7410326 0 0 1 5.741033,-5.7410322 5.7410326,5.7410326 0 0 1 5.741032,5.7410322 z"
         id="path11" />
      <path
         style="color:#000000;fill:#000000;-inkscape-stroke:none"
         d="m 11.767578,6.7714844 c -3.6746414,0 -6.673828,2.9972335 -6.673828,6.6718746 0,3.674642 2.9991866,6.673828 6.673828,6.673828 3.674642,0 6.673828,-2.999186 6.673828,-6.673828 0,-3.6746411 -2.999186,-6.6718746 -6.673828,-6.6718746 z m 0,1.8632812 c 2.666722,0 4.808594,2.1418724 4.808594,4.8085934 0,2.666722 -2.141872,4.808594 -4.808594,4.808594 -2.6667216,0 -4.8085936,-2.141872 -4.8085936,-4.808594 0,-2.666721 2.141872,-4.8085934 4.8085936,-4.8085934 z"
         id="path12" />
    </g>
    <g
       id="path1-5"
       transform="translate(-2.5890468,-3.668688)">
      <path
         style="color:#000000;fill:#000000;fill-opacity:0.00467649;-inkscape-stroke:none"
         d="m 39.087586,23.862051 a 5.7410326,5.7410326 0 0 1 -5.741032,5.741033 5.7410326,5.7410326 0 0 1 -5.741033,-5.741033 5.7410326,5.7410326 0 0 1 5.741033,-5.741033 5.7410326,5.7410326 0 0 1 5.741032,5.741033 z"
         id="path9" />
      <path
         style="color:#000000;fill:#000000;-inkscape-stroke:none"
         d="m 33.345703,17.189453 c -3.674641,0 -6.671875,2.997234 -6.671875,6.671875 0,3.674642 2.997234,6.673828 6.671875,6.673828 3.674642,0 6.673828,-2.999186 6.673828,-6.673828 0,-3.674641 -2.999186,-6.671875 -6.673828,-6.671875 z m 0,1.863281 c 2.666722,0 4.808594,2.141872 4.808594,4.808594 0,2.666722 -2.141872,4.808594 -4.808594,4.808594 -2.666722,0 -4.808594,-2.141872 -4.808594,-4.808594 0,-2.666722 2.141872,-4.808594 4.808594,-4.808594 z"
         id="path10" />
    </g>
    <g
       id="path5"
       transform="translate(-2.5890468,-3.668688)">
      <path
         style="color:#000000;fill:#ff0000;-inkscape-stroke:none"
         d="m 16.957092,15.898873 11.19963,5.50857"
         id="path6" />
      <path
         style="color:#000000;fill:#000000;-inkscape-stroke:none"
         d="m 17.369141,15.0625 -0.824219,1.673828 11.201172,5.507813 0.822265,-1.673829 z"
         id="path7" />
    </g>
  </g>
</svg>
